<?xml version="1.0" standalone="no"?>
<!DOCTYPE svg PUBLIC "-//W3C//DTD SVG 20010904//EN"
 "http://www.w3.org/TR/2001/REC-SVG-20010904/DTD/svg10.dtd">
<svg version="1.0" xmlns="http://www.w3.org/2000/svg"
 width="604.816695pt" height="654.797764pt" viewBox="0 0 604.816695 654.797764"
 preserveAspectRatio="xMidYMid meet">

<g transform="translate(-81.183305,711.797764) scale(0.100000,-0.100000)"
fill="#000000" stroke="none">
<path d="M3802 7112 c-7 -5 -21 -56 -31 -113 -30 -168 -124 -596 -226 -1029
-25 -107 -74 -321 -110 -475 -95 -419 -146 -639 -150 -652 -3 -9 -23 -2 -62
21 -32 18 -123 70 -203 116 -80 45 -197 113 -261 151 -122 73 -163 84 -192 51
-32 -35 -21 -69 56 -175 180 -250 387 -552 387 -565 0 -4 -91 -30 -202 -59
-1153 -292 -1534 -385 -1843 -449 -134 -27 -162 -44 -151 -89 9 -35 32 -44
271 -100 110 -26 583 -143 1050 -260 630 -157 850 -216 849 -226 -1 -8 -57
-93 -126 -189 -286 -400 -308 -434 -308 -460 0 -33 28 -60 61 -60 14 0 46 13
72 30 83 53 410 237 505 284 51 26 97 44 102 41 6 -4 10 -16 10 -27 0 -12 13
-71 30 -132 34 -129 221 -935 279 -1206 45 -209 166 -822 176 -890 8 -52 29
-80 60 -80 41 0 52 30 99 265 41 210 71 351 170 810 62 286 216 957 251 1095
19 74 35 143 35 152 0 44 25 32 454 -219 116 -68 218 -123 228 -123 10 0 27 9
38 20 41 41 42 40 -235 420 -38 52 -100 135 -138 183 -38 49 -67 90 -65 92 17
15 1933 492 2092 521 42 7 86 43 86 69 0 28 -37 53 -97 65 -108 22 -696 162
-928 221 -271 70 -1088 275 -1127 283 -16 4 -28 11 -28 17 0 7 22 41 49 78 26
36 104 149 173 251 69 102 148 218 177 259 68 99 67 153 -4 167 -25 4 -49 -6
-140 -61 -120 -73 -328 -197 -442 -263 -39 -23 -76 -42 -81 -42 -10 0 -40 112
-138 515 -97 402 -339 1454 -364 1580 -32 166 -40 190 -70 193 -14 1 -31 -2
-38 -6z m98 -1127 c29 -126 72 -318 97 -425 46 -204 311 -1271 316 -1277 2 -1
127 -32 278 -67 391 -92 981 -239 1212 -302 108 -30 200 -54 202 -54 3 0 5 -4
5 -10 0 -5 -9 -10 -20 -10 -22 0 -902 -214 -1170 -285 -91 -23 -237 -60 -325
-81 -88 -20 -165 -41 -172 -46 -6 -5 -21 -53 -33 -106 -12 -53 -42 -178 -67
-277 -48 -194 -150 -624 -238 -1010 -128 -557 -134 -579 -140 -574 -4 5 -32
127 -76 339 -61 296 -147 671 -258 1130 -38 157 -79 328 -92 380 -12 52 -25
99 -29 103 -7 8 -983 256 -1425 362 -126 31 -250 61 -275 67 l-45 12 30 8 c17
4 161 39 320 78 160 38 436 106 615 149 179 44 423 103 543 131 121 28 225 54
232 56 15 6 19 20 139 556 47 205 117 515 156 688 64 286 150 688 150 707 0 4
4 3 9 -2 5 -6 32 -113 61 -240z"/>
</g>
</svg>
